<svg width="360" height="640" viewBox="0 0 360 640" fill="none" xmlns="http://www.w3.org/2000/svg"><rect width="360" height="640" rx="32" fill="#FFFFFF"/><rect x="24" y="60" width="312" height="60" rx="16" fill="#FF6200"/><text x="180" y="98" text-anchor="middle" font-family="Poppins, Arial, sans-serif" font-size="24" fill="#FFFFFF">Dashboard</text><rect x="24" y="140" width="312" height="80" rx="16" fill="#F5F5F5"/><rect x="40" y="156" width="40" height="40" rx="8" fill="#FF6200"/><rect x="96" y="156" width="180" height="16" rx="8" fill="#E0E0E0"/><rect x="96" y="180" width="120" height="12" rx="6" fill="#E0E0E0"/><rect x="24" y="236" width="312" height="80" rx="16" fill="#F5F5F5"/><rect x="40" y="252" width="40" height="40" rx="8" fill="#FF6200"/><rect x="96" y="252" width="180" height="16" rx="8" fill="#E0E0E0"/><rect x="96" y="276" width="120" height="12" rx="6" fill="#E0E0E0"/><rect x="24" y="332" width="312" height="80" rx="16" fill="#F5F5F5"/><rect x="40" y="348" width="40" height="40" rx="8" fill="#FF6200"/><rect x="96" y="348" width="180" height="16" rx="8" fill="#E0E0E0"/><rect x="96" y="372" width="120" height="12" rx="6" fill="#E0E0E0"/><rect x="80" y="560" width="200" height="12" rx="6" fill="#F5F5F5"/><rect x="24" y="600" width="56" height="8" rx="4" fill="#FF6200"/><rect x="80" y="600" width="56" height="8" rx="4" fill="#F5F5F5"/><rect x="136" y="600" width="56" height="8" rx="4" fill="#F5F5F5"/><rect x="192" y="600" width="56" height="8" rx="4" fill="#F5F5F5"/><rect x="248" y="600" width="56" height="8" rx="4" fill="#F5F5F5"/></svg>