<svg width="360" height="640" viewBox="0 0 360 640" fill="none" xmlns="http://www.w3.org/2000/svg"><rect width="360" height="640" rx="32" fill="#FFFFFF"/><rect x="24" y="60" width="312" height="60" rx="16" fill="#FF6200"/><text x="180" y="98" text-anchor="middle" font-family="Poppins, Arial, sans-serif" font-size="24" fill="#FFFFFF">Settings</text><rect x="40" y="150" width="280" height="40" rx="12" fill="#F5F5F5"/><rect x="56" y="162" width="120" height="16" rx="8" fill="#E0E0E0"/><rect x="40" y="210" width="280" height="40" rx="12" fill="#F5F5F5"/><rect x="56" y="222" width="80" height="16" rx="8" fill="#FF6200"/><rect x="40" y="270" width="280" height="40" rx="12" fill="#F5F5F5"/><rect x="56" y="282" width="100" height="16" rx="8" fill="#E0E0E0"/><rect x="40" y="330" width="280" height="40" rx="12" fill="#F5F5F5"/><rect x="56" y="342" width="60" height="16" rx="8" fill="#E0E0E0"/><rect x="40" y="390" width="280" height="40" rx="12" fill="#F5F5F5"/><rect x="56" y="402" width="120" height="16" rx="8" fill="#E0E0E0"/><rect x="80" y="560" width="200" height="12" rx="6" fill="#F5F5F5"/><rect x="24" y="600" width="56" height="8" rx="4" fill="#F5F5F5"/><rect x="80" y="600" width="56" height="8" rx="4" fill="#F5F5F5"/><rect x="136" y="600" width="56" height="8" rx="4" fill="#F5F5F5"/><rect x="192" y="600" width="56" height="8" rx="4" fill="#FF6200"/><rect x="248" y="600" width="56" height="8" rx="4" fill="#F5F5F5"/></svg>