<svg xmlns="http://www.w3.org/2000/svg" viewBox="0 0 500 500" fill="none" stroke="#15803d" stroke-width="10" stroke-linecap="round" stroke-linejoin="round">
  <!-- 購物袋 -->
  <path d="M100 200 L100 450 L400 450 L400 200 Z" />
  
  <!-- 袋子上的褶皺線 -->
  <line x1="150" y1="250" x2="150" y2="450" />
  <line x1="350" y1="250" x2="350" y2="450" />
  <line x1="250" y1="400" x2="400" y2="400" />
  
  <!-- 袋子波浪線 -->
  <path d="M100 200 L150 220 L200 200 L250 220 L300 200 L350 220 L400 200" />
  
  <!-- 袋子內的食物 -->
  <!-- 麵包 -->
  <g transform="translate(0, 0)">
    <path d="M170 120 L170 180 L250 180 L250 120 Z" />
    <text x="190" y="160" font-family="Arial" font-size="24" fill="#15803d">BREAD</text>
  </g>
  
  <!-- 法國麵包 -->
  <path d="M270 60 L270 200 C290 175 310 150 330 125" />
  <path d="M280 100 L295 100" />
  <path d="M280 130 L295 130" />
  <path d="M280 160 L295 160" />
  
  <!-- 蔬菜 - 花椰菜 -->
  <path d="M350 120 C370 80 410 80 430 120 C450 160 410 200 390 180 C370 200 330 160 350 120 Z" />
  <path d="M380 120 C390 130 400 120 390 110" />
  <path d="M410 140 C420 150 430 140 420 130" />
  <path d="M380 160 C390 170 400 160 390 150" />
  <path d="M350 140 C360 150 370 140 360 130" />
  
  <!-- 蘋果 -->
  <circle cx="320" cy="70" r="20" />
  <path d="M320 50 L325 30" />
</svg> 